<svg width="44" height="44" viewBox="0 0 44 44" fill="none" xmlns="http://www.w3.org/2000/svg">
<path d="M2.12669 43.0989H27.21C28.1996 43.0989 29.0017 42.2968 29.0017 41.3072V32.2488C37.053 31.3544 43.335 24.5096 43.335 16.2239C43.335 7.33273 36.1012 0.098877 27.21 0.098877C18.9243 0.098877 12.0795 6.38091 11.1851 14.4322H2.12669C1.13707 14.4322 0.335022 15.2343 0.335022 16.2239V41.3072C0.335022 42.2968 1.13707 43.0989 2.12669 43.0989ZM25.4184 28.6354C19.9342 27.8473 15.5866 23.4997 14.7985 18.0155H25.4184V28.6354ZM27.21 3.68221C34.1254 3.68221 39.7517 9.30846 39.7517 16.2239C39.7517 22.5311 35.0717 27.7633 29.0017 28.6354V16.2239C29.0017 15.2343 28.1996 14.4322 27.21 14.4322H14.7985C15.6706 8.36294 20.9028 3.68221 27.21 3.68221ZM3.91836 18.0155H11.1851C12.0137 25.4783 17.9556 31.4201 25.4184 32.2488V39.5155H3.91836V18.0155Z" fill="#3C09B3"/>
</svg>
