<svg width="44" height="59" viewBox="0 0 44 59" fill="none" xmlns="http://www.w3.org/2000/svg">
<path d="M33.1044 39.6864H30.4422V36.7006H38.317C38.5741 36.7064 38.8219 36.6063 39.0027 36.4241C39.184 36.2418 39.2822 35.9935 39.2753 35.7364V26.2093C41.3903 25.7229 42.8055 23.8995 42.8055 21.7306C42.8055 19.5612 41.3903 17.7373 39.2753 17.2508V10.9113C39.2822 10.6552 39.1835 10.4073 39.0022 10.2261C38.821 10.0448 38.5731 9.94613 38.317 9.95294H22.7288V7.86227C24.6562 7.4244 25.9581 5.62289 25.7701 3.65517C25.5815 1.68745 23.9613 0.165855 21.9853 0.101221C20.0098 0.0370717 18.2938 1.44981 17.9774 3.401C17.6611 5.3522 18.8434 7.23487 20.7383 7.79763V9.95245H5.39841C5.1423 9.94565 4.89445 10.0443 4.71318 10.2256C4.53191 10.4068 4.43326 10.6542 4.44055 10.9103V17.2499C2.32558 17.7363 0.909932 19.5597 0.909932 21.7286C0.909932 23.898 2.32558 25.7229 4.44055 26.2093V35.7364C4.43326 35.9935 4.53143 36.2418 4.7127 36.4241C4.89348 36.6063 5.14133 36.7064 5.39841 36.7006H13.2737V39.6864H10.611C4.96929 39.6864 0.335022 44.3052 0.335022 49.9474V57.1286C0.335022 57.6788 0.8244 58.0991 1.37404 58.0991H42.3414C42.891 58.0991 43.3809 57.6783 43.3809 57.1286V49.9474C43.3809 44.3052 38.7466 39.6864 33.1044 39.6864ZM19.917 4.03083C19.917 2.95876 20.7859 2.08984 21.8579 2.08984C22.9295 2.08984 23.7985 2.95876 23.7985 4.03083C23.7985 5.10241 22.9295 5.97133 21.8579 5.97133C20.7864 5.97036 19.9179 5.10192 19.917 4.03083ZM40.8149 21.7301C40.8149 22.789 40.2706 23.7007 39.2753 24.1124V19.3474C40.2706 19.759 40.8149 20.6712 40.8149 21.7301ZM2.90049 21.7301C2.90049 20.6712 3.44527 19.759 4.44055 19.3474V24.1124C3.44527 23.7007 2.90049 22.789 2.90049 21.7301ZM6.43111 11.943H37.2848V34.71H6.43111V11.943ZM15.2642 36.7006H28.4517V39.6864H15.2642V36.7006ZM41.3903 56.1086H33.3037V56.0911C32.9335 56.109 32.8075 56.109 32.2573 56.109H11.61C11.0604 56.109 10.7571 56.0911 10.4122 56.0911V56.1086H2.32558V49.9474C2.32558 45.403 6.06663 41.677 10.611 41.677H33.1044C37.6493 41.677 41.3903 45.403 41.3903 49.9474V56.1086Z" fill="#3C09B3"/>
<path d="M30.3712 27.4935C30.3712 26.9438 30.4942 26.0991 29.9446 26.0991H21.835H13.6469C13.0972 26.0991 13.2202 26.9438 13.2202 27.4935C13.2202 28.0431 13.2202 30.1778 13.2202 30.1778C13.2202 30.7274 13.0972 31.1731 13.6469 31.1731H29.9446C30.4942 31.1731 30.3712 30.7274 30.3712 30.1778V27.4935ZM14.6422 29.0991V28.0991C14.6422 28.0991 14.6066 28.0991 21.835 28.0991C29.0634 28.0991 29.0737 28.0991 29.0737 28.0991V29.0991H14.6422Z" fill="#3C09B3"/>
<path d="M18.4989 16.173C18.4989 15.6233 18.0532 15.1777 17.5036 15.1777H12.9004C12.3508 15.1777 11.9051 15.6233 11.9051 16.173V20.7761C11.9051 21.3258 12.3508 21.7714 12.9004 21.7714H17.5036C18.0532 21.7714 18.4989 21.3258 18.4989 20.7761V16.173ZM13.8957 17.1682H16.6327V19.7808H13.8957V17.1682Z" fill="#3C09B3"/>
<path d="M31.6863 16.173C31.6863 15.6233 31.2407 15.1777 30.6911 15.1777H26.0879C25.5382 15.1777 25.0926 15.6233 25.0926 16.173V20.7761C25.0926 21.3258 25.5382 21.7714 26.0879 21.7714H30.6911C31.2407 21.7714 31.6863 21.3258 31.6863 20.7761V16.173ZM27.0832 17.1682H29.8202V19.7808H27.0832V17.1682Z" fill="#3C09B3"/>
</svg>
