<svg width="44" height="55" viewBox="0 0 44 55" fill="none" xmlns="http://www.w3.org/2000/svg">
<path d="M32.585 9.22009H22.8123C21.9132 9.22009 21.1835 8.34445 21.1835 7.26554C21.1835 6.18664 21.9132 5.311 22.8123 5.311H32.585C33.4841 5.311 34.2138 6.18664 34.2138 7.26554C34.2138 8.34445 33.4841 9.22009 32.585 9.22009Z" fill="#3C09B3"/>
<path d="M14.335 37.4625H6.33502C5.78302 37.4625 5.33502 37.0145 5.33502 36.4625C5.33502 35.9105 5.78302 35.4625 6.33502 35.4625H14.335C14.887 35.4625 15.335 35.9105 15.335 36.4625C15.335 37.0145 14.887 37.4625 14.335 37.4625Z" fill="#3C09B3"/>
<path d="M14.335 41.4625H6.33502C5.78302 41.4625 5.33502 41.0145 5.33502 40.4625C5.33502 39.9105 5.78302 39.4625 6.33502 39.4625H14.335C14.887 39.4625 15.335 39.9105 15.335 40.4625C15.335 41.0145 14.887 41.4625 14.335 41.4625Z" fill="#3C09B3"/>
<path d="M21.335 41.4625H13.335C12.783 41.4625 12.335 41.0145 12.335 40.4625C12.335 39.9105 12.783 39.4625 13.335 39.4625H21.335C21.887 39.4625 22.335 39.9105 22.335 40.4625C22.335 41.0145 21.887 41.4625 21.335 41.4625Z" fill="#3C09B3"/>
<path d="M14.335 45.4625H6.33502C5.78302 45.4625 5.33502 45.0145 5.33502 44.4625C5.33502 43.9105 5.78302 43.4625 6.33502 43.4625H14.335C14.887 43.4625 15.335 43.9105 15.335 44.4625C15.335 45.0145 14.887 45.4625 14.335 45.4625Z" fill="#3C09B3"/>
<path d="M21.335 45.4625H13.335C12.783 45.4625 12.335 45.0145 12.335 44.4625C12.335 43.9105 12.783 43.4625 13.335 43.4625H21.335C21.887 43.4625 22.335 43.9105 22.335 44.4625C22.335 45.0145 21.887 45.4625 21.335 45.4625Z" fill="#3C09B3"/>
<path d="M11.7365 11.8261H1.96381C1.06472 11.8261 0.335022 11.1694 0.335022 10.3602V1.56479C0.335022 0.755604 1.06472 0.098877 1.96381 0.098877H11.7365C12.6356 0.098877 13.3653 0.755604 13.3653 1.56479V10.3602C13.3653 11.1694 12.6356 11.8261 11.7365 11.8261ZM3.5926 8.89433H10.1077V3.0307H3.5926V8.89433Z" fill="#3C09B3"/>
<path d="M41.8148 26.1595H17.4916C16.6524 26.1595 15.9714 25.5109 15.9714 24.7117V1.54669C15.9714 0.747497 16.6524 0.098877 17.4916 0.098877H41.8148C42.654 0.098877 43.335 0.747497 43.335 1.54669V24.7117C43.335 25.5109 42.654 26.1595 41.8148 26.1595ZM19.0118 23.2639H40.2946V2.9945H19.0118V23.2639Z" fill="#3C09B3"/>
<path d="M41.7062 40.4928H31.9335C31.0344 40.4928 30.3047 39.8361 30.3047 39.0269V30.2315C30.3047 29.4223 31.0344 28.7655 31.9335 28.7655H41.7062C42.6053 28.7655 43.335 29.4223 43.335 30.2315V39.0269C43.335 39.8361 42.6053 40.4928 41.7062 40.4928ZM33.5623 37.561H40.0774V31.6974H33.5623V37.561Z" fill="#3C09B3"/>
<path d="M26.1785 54.8261H1.85522C1.01607 54.8261 0.335022 54.1775 0.335022 53.3783V30.2134C0.335022 29.4142 1.01607 28.7655 1.85522 28.7655H26.1785C27.0176 28.7655 27.6987 29.4142 27.6987 30.2134V53.3783C27.6987 54.1775 27.0176 54.8261 26.1785 54.8261ZM3.37543 51.9305H24.6583V31.6612H3.37543V51.9305Z" fill="#3C09B3"/>
</svg>
